<svg xmlns="http://www.w3.org/2000/svg" viewBox="0 0 32 32">
  <path d="M16 2 C16 2 6 14 6 20 C6 26.627 10.477 31 16 31 C21.523 31 26 26.627 26 20 C26 14 16 2 16 2Z"
        fill="#1a6fdb" />
  <path d="M16 2 C16 2 6 14 6 20 C6 26.627 10.477 31 16 31 C21.523 31 26 26.627 26 20 C26 14 16 2 16 2Z"
        fill="url(#shine)" />
  <ellipse cx="12" cy="18" rx="2.5" ry="3.5" fill="white" opacity="0.25" transform="rotate(-20 12 18)"/>
  <defs>
    <linearGradient id="shine" x1="0%" y1="0%" x2="100%" y2="100%">
      <stop offset="0%" style="stop-color:#4da6ff;stop-opacity:1" />
      <stop offset="100%" style="stop-color:#0047b3;stop-opacity:1" />
    </linearGradient>
  </defs>
</svg>
